<svg xmlns="http://www.w3.org/2000/svg" xml:space="preserve" width="2758.21" height="1054.795" style="clip-rule:evenodd;fill-rule:evenodd;image-rendering:optimizeQuality;shape-rendering:geometricPrecision;text-rendering:geometricPrecision" viewBox="0 0 72977.649 27908.121" id="svg19"><defs id="defs4"><style type="text/css" id="style2">.fil0{fill:#2955A0}</style></defs><g id="&#x421;&#x43B;&#x43E;&#x439;_x0020_1" transform="translate(-9368.42 -13686.239)"><g id="_1624684126560"><path class="fil0" d="M19563.94 30174.77c399.14-93.94 402.64-40.82 405.53 115.75 0 266.44-2.44 658.54-208.6 775.88-336.77-18.58-870.44-18.35-1694.41 10.39-5988.24 208.87-13315.05 3748.74-4884.48 6607.13 1838.45-94.54 3528.06 845.81 4897.35 1932.04 847.43 672.26 2700.65 1571.42 3724.22 933.98 210.76-131.23 467.52-1232.12 1607.18-837.03 728.81 252.63 525.2-1411.95 412.29-2582.52l-165.34 458.71-1034.9-145.43-375.91 1106.88 1029.22 144.64-170.29 468.96-1029.19-144.64-347.68 1029.68-517.45-72.71 347.67-1029.71-1103.13-155.03-347.67 1029.67-523.14-73.51 347.65-1029.68-1029.19-144.63 170.25-468.97 1029.23 144.64 375.91-1106.88-1029.23-144.64 171.09-474.65 1029.22 144.67 346.85-1024 517.45 72.72-346.85 1024 1103.14 155.03 346.85-1023.97 523.13 73.51-352.53 1023.18 1033.2 145.23c-52.04-542.02-83.46-974.83 8.75-1055.7 2580.1-2263.1 6304.55 313.25 10636.92 235.54 2709.49-48.6 10863.45 263.68 19446.31 204.74 2323.77-15.96 4678.97-59.14 6966.07-144.04 10817.33-401.65 20126.89-1727.13 21452.21-2878.07 36.07-31.33 3.09-52.44-83.03-66.16l2.02-1.59c-4.69 0-9.58-.31-14.46-.56a741.434 741.434 0 0 0-48.32-6c-504.24-94.3-1809.65-1201.13-5093.25-1201.13-431.5-521.77-88.48-1967.83 811.1-1967.83 0-297.49-1042.83-1035.19-1042.83-1736.34 141.17 0 261.92-115.78 463.48-115.78 0-174.97-811.13-637.52-811.13-1099.66 258.91 0 482.35-92.32 615.37-92.32-279.37-416.53-1078.85-1153.55-1078.85-1528.27h405.56c0-228.97-926.99-1409.25-926.99-1678.44-742.73 59.11-874.02 2069.63-1332.53 2488.75 253.85 0 433.32-34.37 695.27-115.78 0 855.64-1075.7 1184.31-1075.7 1733.64l818.6 43.48c-146.88 972.9-901.65 880.95-901.65 1290.41 261.89 0 767.27-63.94 767.27 214.23-281.49 86.07-593.46 191.31-593.46 480.3 878.42 0 842.4 704.44 695.24 926.06-824.34 0-1779.69-868.17-1796.05-868.17 0-90.9-1158.69-971.17-1158.69-1967.84-125.01-313.13-477.34-1148.26-1083.59-1148.26l-75.16-9.32c-1241.61 0-2704.86-2083.56-2838.87-2083.56-363.27-998.83-1013.12-1734.32-1327.84-1697.25-863.74 44.37-1247.86-1949.91-2636.63-2224.56-419.8-82.99-1075.98 1365.68-1075.98 1548.81-45.7 350.72-584.54 756.91-1448.39 926.03-112.74 17.35-811.13 725.91-811.13 1504.83-56.5 291.21-664.82 173.64-1274.59 173.64-87.68-17.07-231.73-23.15-231.73 520.89-62.63 159.69 8.64 231.53-926.99 231.53-194.15-119.78-478.96-406.73-753.18-405.17v-231.5c87.14 0 430.98-115.75 463.51-115.75 0-67.09-757.28-1157.58-811.13-1157.58v-347.25c88.25 0 405.56-114.33 405.56-289.39-131.09 0-547.53-926.03-637.29-926.03v-173.67c116.2 0 230.87-79.67 347.62-173.61-681.63-287.63-404.43-639.22-579.38-1215.42-250.67 0-232.04 425.06-232.04 672.49 28.81 134.67-655.86 765.85-694.92 774.43 85.38 48.55 97.83 57.89 347.62 57.89 0 426.7-314.64 694.53-695.27 694.53 0 208.46 234.91 347.28 347.65 347.28v636.64c-879.84 0-1649.1-2141.48-1969.85-2141.48 0-127.71 331.77-231.5 463.51-231.5 0-196.25-984.91-858.56-984.91-1331.19h695.24c0-347.28-579.38-712.06-579.38-1099.7h579.38c0-87.68-778.53-819.34-753.22-1157.53 0-302.11-169.18-1157.55-463.48-1157.55 0 140.57-289.67 1102.28-289.67 1446.94-25.54 197.27-1074.16 982.27-1074.16 993.21 31.9 0 493.59 337.99 610.67 337.99 0 737.28-659.19 662.37-659.19 919.78 227.04 405.62 519.64 411.39 659.19 411.39v1389.08c-277.63 0-1216.66-732.51-1216.66-983.92h521.45c99.88-566.9-984.94-555.45-984.94-1736.33 211.68 0 412.78-57.89 463.49-57.89-726.49-714.41-657.26-1620.59-1042.83-1620.59 0 1323.25-753.19 1404.88-753.19 1794.23 288.26 0 268.83 57.86 521.43 57.86v578.81c-712.73 0-1258.9-463.06-1680.15-463.06-222.32-120.01-149.61-347.25 231.76-347.25 100.21-82.35 97.06-126.72 57.92-231.5-304.05 0-714.53-520.92-811.11-520.92 0-481.06-579.34-689.47-579.34-57.86 41.61 131.2-249.26 601.56-289.7 520.89h-869.05c-676.41 200.62-1182.07-2345.76-2549.2-3009.64 0-350.43-529.72-578.78-926.97-578.78-156.59-104.61-347.61-583.21-347.61-810.28.73-147.19-715.78-1215.44-1158.73-1215.44 0-322.31-926.96 134.92-926.96 520.89-108.14 1152.35-5223.75 4310.41-6025.39 6482.31-400.65 710.94-2371.9 2013.9-3360.3 1504.8-732.76-420.08-1178.07-1041.78-1216.67-1041.78 0-263.37 79.56-231.5 347.62-231.5 0-375.42-490.07-540.63-490.07-1042.2 38.15-137.76 32.95-115.35 432.15-115.35 0-312.65-753.18-213.41-753.18-1331.2-12.47-231.72-196.68-225.33-231.76-115.75-124.49 729.18-766.84 945.57-831.44 1364.12 311.58-128.39 564.07-204.89 599.72-90.81 0 1183.4-695.24 1303.98-695.24 1446.94 211.67 0 412.78 57.89 463.48 57.89 0 1503.59-610.65 896.75-610.65 1302.99 658.34 0-4.57 1012.1-548.07 1012.1 0 688.82 1265.15-60.65 926.97 1041.8-24.66 134.64-746.94 894.82-1644.14 785.23-165.97-68.14-847.09-496.35-847.09-727.34 201.28-59.25 337.82-155.03 405.54-289.41-488.2 0-1100.78-2012.95-1100.78-2488.73-615.16 0-285.44 1428.51-1128.3 1998.74l313.17 19.66 61.95 7.33c0 1239.39-753.16 1174.91-753.16 1620.58h579.35c0 949.52-579.35 607.1-579.35 983.92 436.42 0 563.5 48.43 579.35 115.75 0 1701.28-1158.72 855.67-1158.72 1504.81h695.21c0 806.18-686.15 1678.47-1506.34 1678.47-488.48-50.82-521.4-1181.53-521.4-1620.59-230.73 88.34-503.71 1094.84-779.09 1550.74-171.91 284.59-487.23 271.92-379.63 474.99zm2165.47 8303.06 370.23-1107.7-1103.13-155.04-370.23 1107.71zM63363.7 22303.37c0-371.33 80.21-372.39 318.3-512.9 115.13-67.95 183.21-71.13 203.13-7.99v57.89c62.49 458.8 862.03 409.4 926.99 868.17 198.89 385.28 119.61 609.43 0 810.28-392.81 162.82-90.21 466.15-458.43 463.03-122.05 20.02-78.82 274.22 0 578.77-17.07 122.15 226.7 228.95 226.7-115.75 506.21 115.36 480.27-159.63 984.89-115.77 147.16 71.07 98.67 580.17 289.7 520.91 339.38 0 657.26 416.42 1042.83 115.78v752.39c-138.19 538.64 781.39 373.13 1100.8 1157.56 1304.13 0 1399.85 636.67 1564.26 636.67 0 99.38 559.86 473.56 695.26 868.13 0 211.79 509.67 371.88 579.35 810.31v347.25c-36.59 212.95 252.12 629.68 521.43 694.56 429.62 0 1692.68 1157.1 1853.96 1620.55 37.58 445.05 521.43 604.23 521.43 810.31-444.48 0-2085.69-1066.92-2085.69-1446.95-172.84-238-906.66-316.6-1100.8-231.5-1565.14 0-1577.67-1273.33-1622.24-1273.33 0-288.54-869.36-318.87-926.96 57.89 0 625.11 173.81 770.03 173.81 1215.44-437.1 0-753.16-847.17-753.16-1331.19-113.76-563.67-393.04-1638.94-637.29-1620.59-722.42-269.3-1410.33 741.74-1738.1 983.92-112.71 18.21-265.15 679.22-405.56 347.28v-868.17c454.28-501.03 928.53-1112.28 753.16-1967.86-188.61-435.48-607.33-282.37-695.24 57.89 0 67.72-347.59 843.51-347.59-694.53 195.62-670.16-549.58-709.64-579.38-1273.31v-810.3c65.84-241.13-401.59-240.68-463.48-463.03-161.94-282-197.81-609.4 57.92-1041.81zm-4171.4 3530.56c336.68 0 880.26 455.19 1256.03 1015.02 497.34 463.43 840.25 67.18 1119.35 374.07v2141.47l15.09 132.54-73-16.79c-22.05 0-1755.31-1292.93-1448.43-2315.11-272.46 0-821.41-868.17-869.04-868.17-118.17-140.04-157.54-289.59 0-463.03zm-4461.08 636.67c-124.84-375.8 178.5-980.48 347.59-983.92 1015.68 106.46 863.62 868.79 1390.51 1852.09 0 308.25 1853.93 1459.75 1853.93 2662.36-287.01 0-2159.37-2372.97-3012.68-2372.97-581.96-5.52-579.35-774.44-579.35-1157.56zm-8632.5-926.06c-592.73-476.4-879.87 279.31-869.05 463.03 0 313.99-239.11 2751.55-678 2751.55l-133.1 142.34c0-9708.99-2316.17-2836.03-4113.49-2836.03-330.83-351.23 875.53-3918.97 302.91-5850.98-329.67-1112.25-2521.96-744.58-2675.06-1312.02-103.02-381.88 1271.38-1195.11 1271.38-1576.53h-57.95c0-469.22 84.76-752.42 521.43-752.42 0-567.16 28.35-810.25 405.56-810.25l57.92 57.86c789.12 2673.84 3616.88 1621.72 3302.38 4167.2l57.95 694.53h57.92v57.89c669.25 538.61 1003.26-385.29 2317.44 115.75 388.29-56.44 73.63 1599.96 637.29 1909.97l115.89 57.86c649.48 171.94 1433.97 285.81 2028.28 670.24 2632.8 1702.96 570.49 2435.67 636.79 4017.88 706.45 0 4055.53 1494.52 4055.53 2546.58-1929.68 526.09-3196.88-1449.5-5214.26-347.25-945.71-232.21-215.96-1056.66-984.91-1852.08 0-319.93-1543.89-482.94-1042.85-2315.12zm-14889.6-2604.47c615.11 0 2491.25 1035.73 2491.25 1331.17 71.19 0 1302.77 689.72 1274.59 1099.66 325.49 253.66 497.97 914.98 695.24 868.2 627.09-194.15 1537.36 941.37 1390.45 1273.31v578.75c-17.22 85.32 1400.78 930.26 1332.55 1446.94-72.03 348.7 1216.67 756.91 1216.67 1389.09-505.26 0-1629.5-1041.81-2723.01-1041.81-417.41 12.36-359.57-472.12-695.35-639.91-578.83-289.22-1303.84-400.51-1332.44-112.51 0 207.58-277.15-31.58-405.54 289.39-153.05 123.16-238.23-37.29-329.13-10.54-325.26 95.76-443.45 503.79-713.7 415.68-140.92-204.37-448.71-196.62-347.65-694.53-450.9-636.47-342.96-1510.43 57.95-2083.61 500.95 100.21 197.7-234.71 695.24-115.72v-1331.2c-297.77-626.27-589.12-178.13-869.02-347.25-670.13-1161.62-904.56-556.34-1158.75-1157.58 0-10.57-579.35-626.22-579.35-1157.53zm-4055.56 5324.72c-24.32 42.73-64.34 38.69-115.84 0-77.03 35.48 11.25 127.6 0 289.39-115.58 485.39 359.49 43.63 637.29 231.5 59.45 96.49 65.82 192.9 0 289.39-81.09 263.06-297.45 54.57-579.37 289.42-491.63 278.62 104.76 648.85 289.67 983.92 81.41 190.31 81.44 475.58-57.94 578.78-329.27 59.5-38.66-694.53-1680.15-694.53-438.41 186.56-347.59 626.64-347.59 636.64-178.93 137.79-730.81 155.06-927-57.89-150.29-598.95 1100.8-1052.18 1100.8-1909.95 130.01-563.64 995.65-1330.34 1139.89-1330.34 0-936 1717.9-2200.22 2683.9-2200.22-349.81 698.91-2143.66 1962.7-2143.66 2893.89z" id="path7"></path><path d="m26593.58 36517.47-427.07 4063.12-1333.21-140.12 427.04-4063.12zm2666.43 280.27-427.07 4063.12-1333.18-140.15 180.91-1721.19-1058.12-111.21 106.75-1015.76 1058.11 111.21 139.38-1326.17zm4154.01 3196.12-55.67 1062.48c-205.31 31.85-414.8 54.03-628.54 66.5-213.72 12.47-445.73 12.13-696.01-.97-798.03-41.84-1408.74-270.32-1832.06-685.52-423.34-415.19-617.92-948.61-583.77-1600.27 36.86-703.62 282.85-1218.66 737.98-1545.23 455.08-326.54 996.67-473.34 1624.71-440.42 108.59 5.68 227.49 19 356.59 40 129.13 20.93 258.77 53.79 389.01 98.47 320.89 111.55 609 329.08 864.3 652.58 255.3 323.53 364.41 839.48 327.28 1547.78-.99 18.89-2.04 38.97-3.15 60.22-1.11 21.25-2.19 41.3-3.15 60.19-1.25 23.63-3.53 44.82-6.88 63.57-3.38 18.78-5.65 39.97-6.87 63.57l-2521.62-132.17c-4.23-9.68-10.76-20.68-19.6-32.98-8.8-12.29-15.22-25.67-19.2-40.07-21.39-43.72-38.8-95.56-52.24-155.46-13.4-59.88-18.18-127.6-14.2-203.16 2.22-42.49 7.33-94.33 15.26-155.46 7.95-61.12 23.34-128.98 46.18-203.55l1324.55 69.43c1.7-213.01-41.04-369.13-128.16-468.4-87.12-99.28-184.27-165.91-291.38-199.94-51.47-12.16-100.67-21.85-147.62-29.03-46.98-7.19-91.72-11.93-134.24-14.15-321.09-16.84-557.56 67.86-709.36 254.03-151.79 186.19-235.39 425.67-250.73 718.44-1.22 23.61-2.47 47.21-3.69 70.81-1.25 23.64-.14 47.36 3.35 71.22 9.77 265.7 111.52 514.86 305.3 747.56 193.8 232.72 562.22 363.29 1105.23 391.76 174.72 9.14 337.14 4.65 487.26-13.52 150.12-18.21 297.37-49.54 441.72-94.05 14.43-4.01 27.67-8.01 39.71-12.13 12.05-4.09 25.28-8.15 39.71-12.13zm3976.78-2744.94-74.23 1061.35c-13.8-5.74-33.29-15.36-58.4-28.97-25.14-13.61-56.07-28.8-92.8-45.62-55.3-22.81-118.98-43.86-191.1-63.11-72.15-19.29-148.31-31.73-228.49-37.33-18.89-1.33-36.56-2.55-53.09-3.72-16.48-1.14-34.34 0-53.54 3.38-213.61 4.03-413.27 80.13-599.01 228.32-185.74 148.16-292.99 427.46-321.68 837.83-22.1 316.03 18.2 553.47 120.83 712.34 102.69 158.9 220.42 271.41 353.27 337.59 77.86 38.6 155.38 65.36 232.55 80.24 77.18 14.89 141.72 24.12 193.61 27.73 89.62 6.27 171.34 7.27 245.11 2.95 73.77-4.34 149.21-15.65 226.33-33.94 24.26-7.81 50.96-16.59 80.04-26.42 29.15-9.8 58.35-20.82 87.66-32.98l-74.22 1061.35c-57.61 10.17-111.49 18.29-161.68 24.26-50.16 5.94-99.22 12.02-147.03 18.15-62 5.14-124.89 6.65-188.75 4.57-63.85-2.07-133.47-5.79-208.97-11.07-811.33-56.73-1380.31-308.62-1706.91-755.69-326.65-447.09-470.47-948.95-431.55-1505.54 3.94-56.61 9-111.98 15.14-166.06 6.16-54.08 15.93-109.07 29.34-165.03 83.88-453.91 300.55-858.28 650.04-1213.06 349.55-354.78 894.56-506.26 1635.16-454.45 141.54 9.88 261.41 24.2 359.61 42.89 98.25 18.72 191.36 43.01 279.33 72.89 14.15.96 28.15 4.32 41.95 10.03 13.81 5.7 27.67 11.39 41.48 17.12zm1877.5 81.67-53.06 1012.89c25.08-27.1 48.94-53.06 71.55-77.95 22.59-24.82 46.33-48.45 71.19-70.84 94.9-94.47 194.43-186.3 298.56-275.55 104.1-89.25 210.2-171.28 318.28-246.13 83.51-57.15 164.41-109.76 242.66-157.73 78.28-47.98 153.81-89 226.64-123.05l1338.73 70.16-213.84 4079.88-1338.72-70.16 145.89-2783.68c-161.26 95.72-349.75 236.18-565.43 421.41-215.68 185.17-441.04 442.07-676.06 770.68l-80.19 1529.98-1338.75-70.16 213.83-4079.91zm6987.64 117.48-52.75 3021.12 510.63 8.92-18.57 1063.76-4694.79-81.95 18.57-1063.76 2843.82 49.62 34.91-1999.87-212.76-3.73c-52.01-.9-111.17 1.6-177.47 7.53-66.33 5.97-135.21 22.47-206.62 49.63-133.36 54.42-257 161.02-370.91 319.81-113.9 158.81-173.95 415.53-180.14 770.14-.83 47.26 1.82 99.3 7.92 156.2 6.08 56.86 13.38 113.7 21.85 170.63-.34 18.91.54 35.47 2.67 49.7 2.13 14.21 5.39 30.82 9.77 49.83 4.26 28.46 8.43 58.08 12.61 88.87 4.23 30.82 8.41 60.48 12.67 88.94l-1326.17-23.15c-30.48-151.88-51.5-301.23-63.12-448.06-11.64-146.82-16.19-293.48-13.63-440.05 10.31-590.99 130.07-1015.73 359.24-1274.18 229.14-258.49 481.57-427.9 757.27-508.2 133.13-40.25 264.79-65.16 395-74.7 130.24-9.55 244.99-13.44 344.27-11.7zm2219.7 38.01 17.72 1014.11c23.12-28.78 45.11-56.36 65.93-82.75 20.82-26.36 42.86-51.55 66.07-75.64 88.08-100.84 180.97-199.4 278.62-295.69 97.63-96.3 197.76-185.54 300.36-267.72 79.3-62.86 156.31-120.98 231.04-174.29 74.76-53.32 147.25-99.5 217.5-138.59l1340.37-23.38 71.3 4084.88-1340.38 23.38-48.62-2787.09c-154.21 106.78-332.46 260.02-534.67 459.82-202.24 199.8-409.12 471.78-620.68 815.99l26.76 1531.85-1340.37 23.4-71.29-4084.91zm4780.17 4054.06-1339.74 46.78-142.6-4083.01 1339.75-46.78c208.98 158.27 407.21 347.73 594.71 568.27 187.5 220.59 356.37 448.88 506.55 684.96 84.96 129.52 160.43 258.17 226.41 385.99 65.96 127.79 124.64 249.96 176.03 366.45l14.17-.48c73.06-210.77 152.62-405.14 238.69-583.21 86.04-178.1 176.14-342.11 270.24-492.09 188.27-299.9 365.72-536.74 532.34-710.55 166.62-173.78 272.89-280.38 318.84-319.84l1339.75-46.81 142.59 4083.04-1339.77 46.78-78.97-2261.29c-142.05 132.74-271.01 300.47-386.96 503.25-115.92 202.76-217.44 412.16-304.53 628.09-47.69 124.7-89.53 248.01-125.49 369.89-35.96 121.92-66.3 235.34-91.04 340.32l-935.65 32.67c-26.93-93.71-59.99-193.1-99.14-298.2-39.17-105.07-81.8-208.86-127.99-311.34-107.51-232.81-231.13-454.43-370.97-664.85-139.83-210.37-285.21-376.82-436.18-499.3zm8612.2-4379.13 158.13 3017.42 509.98-26.72 55.67 1062.48-4689.05 245.73-55.67-1062.48 2840.35-148.85-104.68-1997.46-212.52 11.14c-51.93 2.73-110.78 9.34-176.48 19.91-65.76 10.54-133.31 31.84-202.67 63.88-129.24 63.6-245.14 178.56-347.71 344.92-102.54 166.37-144.55 426.64-125.97 780.83 2.47 47.2 8.75 98.96 18.8 155.26 10.03 56.3 21.28 112.51 33.69 168.69 1 18.89 3.04 35.37 6.14 49.4 3.12 14.03 7.52 30.39 13.23 49.03 6.22 28.09 12.47 57.35 18.78 87.8 6.36 30.42 12.61 59.7 18.83 87.8l-1324.55 69.42c-40.99-149.38-72.4-296.89-94.22-442.55-21.84-145.63-36.61-291.63-44.28-438.03-30.93-590.29 58.88-1022.32 269.48-1296.15 210.53-273.82 450.53-460.44 719.98-559.77 129.98-49.46 259.59-83.46 388.83-102.06 129.24-18.61 243.43-30.51 342.59-35.71zm3204.61 3969.64c-626.92 50.14-1158.92-89.64-1595.99-419.28-437.03-329.61-685.41-835.96-745.17-1519.01-59.76-683.03 96.83-1225.99 469.79-1628.82 372.98-402.9 872.71-631.73 1499.21-686.55 626.53-54.79 1158.41 83.77 1595.67 415.76 437.27 331.97 685.75 839.48 745.52 1522.53 59.76 683.06-96.95 1224.82-470.13 1625.33-373.16 400.51-873 628.18-1499.52 682.97zm-89.02-1017.49c23.58-2.05 48.2-5.37 73.88-10 25.71-4.63 52.49-10.54 80.33-17.72 152.96-41.87 287.34-147.37 403.07-316.49 115.75-169.15 156.71-446.87 122.9-833.14-33.77-386.25-122.36-652.64-265.7-799.09-143.36-146.49-293.99-227.04-451.89-241.7-28.69-2.24-56.07-3.44-82.2-3.49-26.11-.09-50.93.88-74.51 2.95-42.38 3.69-92.63 12.87-150.66 27.44-58.06 14.57-116.29 41.02-174.63 79.34-108.51 61.69-201.9 174.32-280.16 337.79-78.26 163.5-103.19 407.75-74.76 732.76 28.46 325.06 95.41 561.28 200.88 708.67 105.44 147.42 216.98 242.1 334.55 284.05 64.11 27.61 126.06 43.55 185.77 47.81 59.68 4.26 110.72 4.54 153.13.82zm4168.87 696.35-1335.45 116.83-356.09-4069.94 1335.49-116.86c216.95 147.14 424.85 325.94 623.63 536.4 198.77 210.45 379.34 429.59 541.68 657.48 91.63 124.9 173.72 249.43 246.3 373.61 72.57 124.19 137.56 243.09 194.97 356.74l14.12-1.22c61.95-214.29 131.23-412.58 207.86-594.88 76.61-182.36 157.96-350.86 244.11-505.55 172.31-309.36 337.11-555.18 494.42-737.45 157.31-182.28 257.83-294.31 301.66-336.12l1335.46-116.83 356.08 4069.97-1335.46 116.83-197.21-2254.04c-134.92 139.98-254.93 314.21-360.09 522.79-105.15 208.58-195.57 422.98-271.27 643.2-41.1 127-76.41 252.32-105.95 375.94-29.51 123.62-53.88 238.46-73.08 344.58l-932.71 81.61c-31.78-92.18-69.99-189.66-114.58-292.57a5036.847 5036.847 0 0 0-144.13-304.25c-119.53-226.87-254.59-441.69-405.22-644.51-150.66-202.78-304.56-361.39-461.72-475.81zm5062.58-3501.96-111.21-1058.11c236.87-53.43 446.25-96.83 628.18-130.21 181.93-33.4 357.53-58.97 526.83-76.75 14.11-1.5 29.39-3.09 45.87-4.83 16.45-1.73 31.73-3.35 45.84-4.83 122.26-12.83 262.89-20.5 421.93-22.95 159.01-2.47 320.95 11.42 485.78 41.64 333.87 55.25 648.94 202.82 945.17 442.72 296.21 239.85 475.22 653.71 537.03 1241.55l233.54 2222.03-2292.59 240.96c-79.93 8.41-190.93 15.34-333.01 20.74-142.06 5.42-290.59-5.12-445.51-31.62-227.95-42.63-442.63-140.09-644.11-292.45-201.42-152.4-321.17-409.63-359.23-771.74-3.47-32.92-5.77-65.98-6.88-99.13-1.08-33.15-1.25-68.82-.51-106.94 13.15-281.87 129.67-553.27 349.47-814.12 219.85-260.81 611.9-420.9 1176.24-480.21l550.21-57.83c77.71 105.95 128.1 212.38 151.22 319.3 23.13 106.94 39.89 209.77 50.25 308.53 1 9.4 1.88 17.64 2.62 24.68.73 7.08 1.59 15.29 2.58 24.69l17.04 162.25-387.95 40.76c-32.92 3.46-66.89 8.24-101.92 14.29-35.02 6.07-73.42 13.66-115.26 22.83-87.86 23.49-166.85 63.89-236.9 121.18-70.05 57.29-98.65 147.05-85.81 269.33 10.88 103.48 58.34 181.68 142.36 234.66 84 52.97 191.85 72.54 323.54 58.71l804.14-84.53-98.6-938.19s-.11-1.16-.36-3.52c-.26-2.36-.37-3.52-.37-3.52-6.42-61.16-14.63-128.02-24.66-200.65-10.03-72.66-26.02-145.86-48.06-219.63-52.66-184.66-162.53-347.85-329.58-489.56-167.05-141.71-455.13-191.11-864.28-148.1-61.13 6.44-120.98 13.92-179.52 22.44-58.51 8.52-113.42 17.86-164.63 28.03-93.06 19.29-188.13 42.35-285.16 69.17-97.03 26.84-204.94 63.17-323.73 108.93z" id="path9" style="fill:#2955A0;fill-rule:nonzero"></path><path class="fil0" d="M70689.48 18211.73c204.46 504.47 5.31 966.35-150.75 1248.18-23.73 42.85-101.91 226.57-123.4 251.74-25.42 29.81 6.8 61.39 13.35 63.39 216.97 0 1625.3-469.22 1825.71-455.97 1439.65 0 2340.24 586.26 2738.55 586.26 6.31-433.1-2398.9-1731.94-2946.36-1620.99-635.5-584.77-2593.32-2304.17-3313.2-2157.02 0 107.54 1868 1805.71 1956.1 2084.41z" id="path11"></path><path class="fil0" d="M59137.54 16464.36c-110.62 145.63-143.42 387.62-77.84 463.88 29.01 33.74 29.75 73.25-43.12 13.91-122.31-99.58-411.17-253.42-462.93-263.83-450.74-122.12-782.44-14.96-907.15-48.75 34.76-136.13 867.98-376.13 1029.97-294.96 41.12-27.02 138.17 36.86 199.17-37.45 177.3-215.96 883.49-403.85 1051.15-319.48-9.12 33.67-738.02 406.9-789.25 486.68z" id="path13"></path><path class="fil0" d="M24297.62 17508.21c-130.52 122.9-150.41 342.13-72.16 518.72 108.02 243.8 108.99 445.12 21.2 398.19-259.16-138.52-842.27-316.94-940.64-317.54-867.86-62.71-1436.3 251.47-1676.41 234.12 55.08-956.05 1818.49-652.68 1876.66-714.51 376-399.72 1354.28-1660.96 2061.33-1290.31-4.68 64.83-1204.73 1007.16-1269.98 1171.33z" id="path15"></path></g></g></svg>